<svg width="194" height="33" viewBox="0 0 194 33" fill="none" xmlns="http://www.w3.org/2000/svg">
<g clip-path="url(#clip0_426_5314)">
<path d="M38.9402 14.2596C38.7102 12.5496 38.2702 10.9095 37.5202 9.34955C36.8802 8.00955 36.1302 6.75955 35.1502 5.62955C34.4402 4.80955 33.6602 4.06955 32.8202 3.39955C31.7802 2.57955 30.6302 1.94955 29.4302 1.38955C27.9502 0.70955 26.3902 0.28955 24.7802 0.14955C23.6302 0.0495502 22.4702 -0.0304498 21.3102 -0.000449811C19.9902 0.0395502 18.6702 0.0195502 17.3502 -0.000449811C16.1102 -0.0104498 14.8802 0.0695502 13.6602 0.23955C12.1502 0.43955 10.7002 0.87955 9.33024 1.52955C7.88024 2.21955 6.57024 3.10955 5.36024 4.15955C4.47024 4.92955 3.75024 5.80955 3.06024 6.73955C1.89024 8.32955 1.06024 10.0996 0.560237 11.9995C0.230237 13.2095 0.0402371 14.4296 0.000237065 15.6595C-0.0497629 17.4095 0.210237 19.0996 0.690237 20.7796C1.40024 23.2495 2.67024 25.3895 4.40024 27.2596C5.84024 28.8095 7.55024 29.9995 9.49024 30.8696C11.5802 31.8096 13.7602 32.2595 16.0402 32.2995C17.2002 32.3195 18.3602 32.2995 19.5202 32.2995C20.6802 32.2995 21.7602 32.2896 22.8802 32.2995C23.9002 32.3095 24.9102 32.2095 25.9102 32.0295C28.2702 31.5995 30.4502 30.6796 32.3902 29.2495C33.6302 28.3396 34.7402 27.2795 35.6802 26.0495C36.9302 24.4195 37.8402 22.6095 38.4202 20.6395C38.7402 19.5695 38.9602 18.4696 39.0102 17.3596C39.0602 16.3295 39.0702 15.2895 38.9302 14.2495M4.63024 22.4195C4.55024 22.4895 4.48024 22.5495 4.42024 22.5795C4.39024 22.5996 4.37024 22.6096 4.34024 22.6096C4.27024 22.6296 4.21024 22.5996 4.16024 22.5196C4.15024 22.4995 4.13024 22.4796 4.12024 22.4496C4.12024 22.4396 4.11024 22.4296 4.10024 22.4095C4.08024 22.3695 4.06024 22.3295 4.03024 22.2796C4.02024 22.2495 4.01024 22.2196 4.00024 22.1996C3.97024 22.1196 3.94024 22.0296 3.91024 21.9396C3.83024 21.8195 3.75024 21.6995 3.74024 21.5595C3.56024 21.3695 3.45024 21.1896 3.43024 20.9895C3.43024 20.9396 3.43024 20.8995 3.43024 20.8496C3.43024 20.8496 3.43024 20.8496 3.43024 20.8396C3.43024 20.8195 3.43024 20.7996 3.44024 20.7696C3.46024 20.6296 3.51024 20.4895 3.59024 20.3295C3.83024 19.8596 4.15024 19.4596 4.52024 19.1096C4.74024 18.8996 4.97024 18.7096 5.23024 18.5396C6.45024 17.7196 7.81024 17.2095 9.28024 17.2395C10.5402 17.2696 11.8002 17.2996 13.0502 17.2896C13.3202 17.2896 13.6002 17.2696 13.8702 17.2596C14.6902 17.1996 15.5002 17.0695 16.3002 16.8496C16.6102 16.7596 16.9102 16.6395 17.1802 16.4795C17.7202 16.1695 17.9802 15.7195 17.9402 15.1895C17.9302 15.0095 17.8802 14.8295 17.8002 14.6396C17.7402 14.4896 17.6702 14.3395 17.5902 14.1895C17.3502 13.7595 17.0602 13.3595 16.7602 12.9595C16.3402 12.4095 16.1202 11.9595 16.1002 11.5196C16.0802 11.0796 16.2802 10.6395 16.7002 10.1195C17.1302 9.57955 17.3302 9.04955 17.3202 8.42955C17.3202 8.32955 17.3202 8.23955 17.3002 8.14955C17.1402 6.69955 17.1602 5.23955 17.2102 3.77955C17.2102 3.70955 17.2102 3.63955 17.2102 3.56955C17.2102 3.49955 17.2102 3.42955 17.2302 3.35955C17.3202 2.88955 17.2902 2.68955 17.3702 2.59955C17.4402 2.50955 17.6202 2.53955 18.1402 2.52955C18.2702 2.52955 18.4102 2.52955 18.5402 2.52955C19.0202 2.52955 19.2202 2.49955 19.3002 2.60955C19.3102 2.62955 19.3202 2.64955 19.3302 2.66955C19.3302 2.68955 19.3402 2.71955 19.3502 2.74955C19.3502 2.81955 19.3502 2.91955 19.3502 3.05955C19.3502 3.14955 19.3502 3.24955 19.3502 3.36955C19.3502 3.51955 19.3502 3.65955 19.3402 3.80955C19.3402 3.94955 19.3202 4.09955 19.3102 4.23955C19.2802 4.52955 19.2502 4.80955 19.2402 5.09955C19.2302 5.34955 19.2302 5.59955 19.2402 5.84955C19.2602 6.34955 19.3102 6.84955 19.3502 7.33955C19.3702 7.58955 19.3902 7.83955 19.4102 8.07955C19.4202 8.26955 19.4202 8.44955 19.4102 8.63955C19.4002 9.00955 19.3602 9.37955 19.3502 9.73955C19.3502 9.91955 19.3502 10.1095 19.3602 10.2895C19.3602 10.3396 19.3602 10.3795 19.3502 10.4095C19.3202 10.5195 19.2202 10.5895 19.1102 10.6495C18.9702 10.7295 18.8202 10.7996 18.7102 10.9095C18.5102 11.1095 18.4102 11.2495 18.4002 11.4095C18.4002 11.4095 18.4002 11.4195 18.4002 11.4296C18.4002 11.4696 18.4002 11.5096 18.4202 11.5596C18.4502 11.6695 18.5202 11.7895 18.6402 11.9495C19.0302 12.4895 19.3802 13.0496 19.6402 13.6595C19.7402 13.8995 19.8402 14.1495 19.9102 14.3995C19.9502 14.5295 19.9802 14.6595 20.0102 14.7895C20.0802 15.0896 20.1002 15.3895 20.0802 15.6895C20.0702 15.8395 20.0502 15.9796 20.0202 16.1196C19.8702 16.7996 19.4802 17.3995 18.8802 17.8396C18.8602 17.8596 18.8402 17.8795 18.8102 17.8895C18.7602 17.9195 18.7102 17.9495 18.6602 17.9795C17.9202 18.4695 17.1202 18.7695 16.2702 18.9695C15.9302 19.0495 15.5802 19.1196 15.2302 19.1796C14.5502 19.2896 13.8602 19.3595 13.1702 19.3895C12.7102 19.4095 12.2502 19.4195 11.7902 19.4195C11.1002 19.4195 10.4102 19.3995 9.72024 19.3795C9.57024 19.3795 9.42024 19.3795 9.27024 19.3795C8.23024 19.4195 7.26024 19.7196 6.36024 20.2896C5.98024 20.5296 5.68024 20.8295 5.49024 21.2495C5.41024 21.4296 5.31024 21.5896 5.20024 21.7395C5.03024 21.9795 4.84024 22.1895 4.62024 22.3795M34.1402 14.7696C34.1302 15.0096 34.1102 15.2596 34.0802 15.4995C33.8202 17.8396 33.1102 19.9995 31.7802 21.8496C31.5802 22.1296 31.3502 22.4095 31.1202 22.6796C31.0902 22.7096 31.0602 22.7495 31.0302 22.7896C30.7802 23.0696 30.5202 23.3396 30.2302 23.5996C29.5402 24.2395 28.7902 24.7896 28.0002 25.2696C27.8002 25.3896 27.6002 25.5096 27.4002 25.6196C26.7902 25.9496 26.1602 26.2495 25.5102 26.5096C25.1802 26.6395 24.8602 26.7695 24.5302 26.8795C22.2202 27.6795 19.8302 28.0396 17.3702 27.9496C16.3502 27.9095 15.3502 27.7495 14.3602 27.4695C14.2702 27.4495 14.1902 27.4195 14.1002 27.3895C13.8502 27.3095 13.6102 27.2096 13.3802 27.0896C13.3002 27.0495 13.2202 27.0095 13.1402 26.9595C12.6202 26.6695 12.1402 26.2995 11.7002 25.8895C11.1302 25.3595 10.6002 24.7795 10.0502 24.2295C9.76024 23.9296 9.42024 23.7095 9.05024 23.5595C8.92024 23.5096 8.79024 23.4796 8.66024 23.4496C8.59024 23.4396 8.52024 23.4195 8.45024 23.4195C8.32024 23.3995 8.18024 23.3995 8.06024 23.4195C7.74024 23.4496 7.45024 23.6095 7.25024 23.9695C7.24024 23.9895 7.22024 24.0096 7.21024 24.0296C7.17024 24.0896 7.11024 24.1495 7.07024 24.2095C6.82024 24.5395 6.68024 24.7096 6.55024 24.6996C6.52024 24.6996 6.48024 24.6796 6.45024 24.6595C6.35024 24.5896 6.24024 24.4095 6.08024 24.1395C5.90024 24.1395 5.88024 23.9696 5.80024 23.8596C5.72024 23.7996 5.63024 23.7495 5.57024 23.6695C5.53024 23.6196 5.49024 23.5796 5.45024 23.5396C5.38024 23.4596 5.34024 23.3995 5.32024 23.3496C5.30024 23.2996 5.30024 23.2495 5.32024 23.1896C5.35024 23.0996 5.41024 22.9895 5.52024 22.8095C5.58024 22.7095 5.64024 22.6096 5.71024 22.5096C5.85024 22.3195 6.00024 22.1595 6.18024 22.0096C6.27024 21.9396 6.35024 21.8695 6.45024 21.8095C6.73024 21.6295 7.04024 21.4895 7.36024 21.3995C7.47024 21.3695 7.58024 21.3396 7.69024 21.3195C7.91024 21.2795 8.14024 21.2596 8.37024 21.2596C8.71024 21.2596 9.05024 21.3095 9.39024 21.3995C9.72024 21.4895 10.0402 21.6295 10.3402 21.8095C10.5002 21.9095 10.6502 22.0096 10.8002 22.1196C11.1002 22.3396 11.3802 22.5795 11.6502 22.8295C11.7802 22.9595 11.9202 23.0896 12.0502 23.2195C12.6102 23.7895 13.1502 24.3796 13.8102 24.8496C13.9502 24.9496 14.1102 25.0495 14.2602 25.1295C14.3902 25.1995 14.5102 25.2596 14.6402 25.3095C14.7402 25.3496 14.8302 25.3895 14.9302 25.4195C15.0502 25.4596 15.1702 25.4895 15.2902 25.5196C15.5702 25.5896 15.8602 25.6495 16.1502 25.6896C18.7402 26.0196 21.2202 25.7495 23.5902 24.9496C24.4602 24.6595 25.3102 24.2996 26.1502 23.8696C26.2502 23.8196 26.3602 23.7695 26.4602 23.7095C27.1302 23.3495 27.7502 22.9495 28.3202 22.4895C28.5102 22.3396 28.6902 22.1796 28.8702 22.0096C29.5802 21.3396 30.1902 20.5595 30.6702 19.6495C30.9502 19.1095 31.1902 18.5695 31.3902 17.9995C31.4602 17.8095 31.5202 17.6196 31.5702 17.4296C31.6702 17.0795 31.7602 16.7295 31.8302 16.3795C31.8402 16.3095 31.8602 16.2495 31.8702 16.1796C31.9402 15.8196 31.9902 15.4595 32.0202 15.0896C32.1502 13.6796 31.9902 12.2996 31.6202 10.9495C31.5302 10.6195 31.4202 10.2996 31.2802 9.99955C31.2402 9.91955 31.2102 9.84955 31.1602 9.77955C31.0702 9.61955 30.9602 9.46955 30.8502 9.31955C30.8102 9.25955 30.7602 9.20955 30.7102 9.15955C30.5402 8.97955 30.3702 8.82955 30.1802 8.70955C29.9902 8.58955 29.8002 8.48955 29.5902 8.40955C29.3802 8.32955 29.1602 8.26955 28.9302 8.22955C28.7202 8.18955 28.5002 8.16955 28.2802 8.15955C28.0302 8.14955 27.7702 8.15955 27.5202 8.17955C26.8202 8.23955 26.1302 8.41955 25.4502 8.61955C24.8902 8.77955 24.3502 8.97955 23.8002 9.18955C23.2602 9.39955 22.7302 9.61955 22.1902 9.85955C21.7602 10.0495 21.7502 10.0496 21.4502 9.66955C21.4102 9.61955 21.3802 9.55955 21.3402 9.50955C20.8802 8.87955 20.5802 8.16955 20.4602 7.38955C20.4302 7.18955 20.4102 6.98955 20.3902 6.78955C20.3202 6.07955 20.3402 5.35955 20.4302 4.64955C20.4602 4.39955 20.4702 4.14955 20.4702 3.88955C20.4702 3.45955 20.4702 3.02955 20.5702 2.61955C20.7102 2.51955 20.8602 2.50955 21.0102 2.59955C21.0102 2.59955 21.0302 2.59955 21.0402 2.59955C21.1302 2.59955 21.2202 2.59955 21.3102 2.59955C21.3602 2.56955 21.3802 2.59955 21.4102 2.62955H21.4202C21.5502 2.64955 21.6702 2.64955 21.8002 2.65955C22.5102 2.63955 22.6102 2.62955 22.6102 2.97955C22.6102 3.00955 22.6102 3.03955 22.6102 3.06955C22.6102 3.16955 22.6102 3.28955 22.6102 3.44955C22.6102 4.06955 22.5402 4.69955 22.5002 5.31955C22.4802 5.56955 22.4702 5.81955 22.4802 6.06955C22.4802 6.18955 22.4802 6.31955 22.4902 6.43955C22.5002 6.59955 22.5102 6.76955 22.5402 6.92955C22.5602 7.05955 22.6002 7.18955 22.6802 7.30955C22.8402 7.30955 22.9802 7.24955 23.1202 7.19955C23.2002 7.16955 23.2902 7.12955 23.3702 7.09955C23.8602 6.90955 24.3502 6.74955 24.8502 6.59955C25.8302 6.30955 26.8302 6.11955 27.8502 6.05955C28.0202 6.05955 28.1802 6.04955 28.3402 6.04955C28.3402 6.04955 28.3502 6.04955 28.3602 6.04955C30.7502 6.07955 32.6102 7.25955 33.4502 9.71955C33.9402 11.1396 34.1902 12.5795 34.1902 14.0395C34.1902 14.2795 34.1902 14.5296 34.1702 14.7696" fill="#929396"/>
<path d="M21.77 2.66039C21.7 3.78039 21.59 4.89039 21.57 6.01039C21.56 6.66039 21.56 7.33039 21.74 7.97039C21.91 8.58039 21.99 8.63039 22.56 8.40039C23.88 7.86039 25.22 7.40039 26.62 7.16039C27.51 7.00039 28.4 6.94039 29.3 7.12039C30.86 7.45039 31.9 8.38039 32.45 9.86039C33.57 12.8904 33.48 15.9104 32.34 18.9304C31.31 21.6704 29.41 23.6104 26.88 24.9804C24.53 26.2504 22.01 26.9504 19.34 27.1704C17.93 27.2904 16.55 27.1904 15.17 26.9304C13.73 26.6504 12.61 25.8604 11.67 24.7704C11.11 24.1104 10.51 23.5004 9.75004 23.0604C9.13004 22.7104 8.48004 22.6004 7.78004 22.6904C7.30004 22.7504 6.91004 22.9504 6.63004 23.3604C6.45004 23.6304 6.26004 23.8804 6.07004 24.1404C5.89004 24.1404 5.87004 23.9704 5.79004 23.8604C5.95004 23.6504 6.12004 23.4604 6.26004 23.2404C6.88004 22.3104 7.78004 22.1404 8.79004 22.3104C10.05 22.5204 10.93 23.3504 11.73 24.2504C12.09 24.6504 12.45 25.0504 12.86 25.4104C13.73 26.1804 14.78 26.5204 15.92 26.6704C19.2 27.1104 22.33 26.5804 25.36 25.2904C26.94 24.6204 28.36 23.7104 29.6 22.5104C31.13 21.0204 32.01 19.1804 32.5 17.1504C33.11 14.6604 32.99 12.1904 32 9.81039C31.37 8.29039 30.18 7.54039 28.55 7.44039C26.73 7.33039 25.03 7.84039 23.36 8.49039C22.99 8.63039 22.61 8.77039 22.25 8.94039C21.96 9.08039 21.8 8.97039 21.66 8.73039C21.53 8.50039 21.43 8.27039 21.36 8.01039C21.14 7.09039 21.1 6.15039 21.17 5.21039C21.23 4.35039 21.31 3.50039 21.38 2.65039C21.51 2.65039 21.63 2.65039 21.76 2.66039" fill="#929396"/>
<path d="M18.5305 2.54004C18.4705 3.82004 18.3005 5.09004 18.3905 6.37004C18.4705 7.43004 18.4805 8.48004 18.4905 9.54004C18.4905 9.86004 18.4305 10.09 18.1605 10.32C17.8405 10.59 17.6305 10.96 17.4305 11.34C17.2805 11.63 17.3105 11.84 17.5205 12.09C18.0805 12.77 18.5405 13.52 18.8805 14.34C19.1005 14.88 19.1705 15.42 19.1005 15.99C19.0105 16.75 18.5205 17.24 17.8905 17.61C17.0305 18.12 16.0705 18.32 15.1105 18.49C14.0205 18.69 12.9205 18.66 11.8205 18.68C10.9305 18.7 10.0205 18.59 9.13047 18.63C7.64047 18.7 6.27047 19.16 5.16047 20.22C4.99047 20.39 4.82047 20.57 4.74047 20.8C4.58047 21.27 4.27047 21.63 3.91047 21.95C3.83047 21.83 3.75047 21.71 3.73047 21.57C4.03047 21.33 4.24047 21.03 4.40047 20.67C4.73047 19.95 5.35047 19.49 6.02047 19.12C7.05047 18.55 8.14047 18.22 9.34047 18.25C10.7405 18.28 12.1405 18.29 13.5405 18.25C14.5805 18.22 15.6105 18.08 16.6105 17.77C16.9505 17.66 17.2905 17.53 17.6005 17.35C18.6305 16.76 18.9705 15.9 18.6305 14.76C18.3805 13.92 17.9005 13.21 17.3805 12.52C16.8105 11.76 16.8005 11.56 17.3205 10.77C17.4205 10.62 17.5005 10.44 17.6405 10.34C18.1005 9.97004 18.1305 9.49004 18.1305 8.95004C18.1205 7.47004 17.9405 6.00004 18.0205 4.52004C18.0605 3.86004 18.1905 3.21004 18.1205 2.55004C18.2505 2.55004 18.3905 2.55004 18.5305 2.55004" fill="#929396"/>
<path d="M53.4497 15.4204C52.6097 15.4204 51.8297 15.2704 51.1097 14.9704C50.3797 14.6704 49.7497 14.2504 49.1997 13.7104C48.6497 13.1704 48.2197 12.5404 47.9197 11.8204C47.6197 11.1004 47.4697 10.3204 47.4697 9.49035C47.4697 8.66035 47.6197 7.90035 47.9197 7.18035C48.2197 6.47035 48.6497 5.84035 49.1897 5.31035C49.7297 4.78035 50.3697 4.36035 51.0897 4.06035C51.8197 3.76035 52.5997 3.61035 53.4297 3.61035C54.0097 3.61035 54.5797 3.69035 55.1397 3.86035C55.6897 4.02035 56.1997 4.26035 56.6497 4.55035C57.0997 4.85035 57.4697 5.19035 57.7597 5.57035L56.6097 6.77035C56.2797 6.45035 55.9397 6.19035 55.5997 5.98035C55.2497 5.77035 54.8997 5.61035 54.5397 5.50035C54.1797 5.39035 53.8097 5.33035 53.4497 5.33035C52.8597 5.33035 52.3097 5.43035 51.8097 5.64035C51.3097 5.85035 50.8697 6.14035 50.4897 6.51035C50.1097 6.88035 49.8197 7.32035 49.6097 7.82035C49.3997 8.32035 49.2997 8.87035 49.2997 9.46035C49.2997 10.0504 49.4097 10.5704 49.6297 11.0804C49.8497 11.5904 50.1597 12.0404 50.5497 12.4204C50.9397 12.8004 51.3897 13.1104 51.8997 13.3304C52.4097 13.5504 52.9497 13.6604 53.5197 13.6604C53.9497 13.6604 54.3597 13.6004 54.7397 13.4704C55.1197 13.3404 55.4697 13.1704 55.7597 12.9304C56.0597 12.7004 56.2897 12.4304 56.4497 12.1304C56.6097 11.8304 56.6997 11.5104 56.6997 11.1704V10.8404L56.9497 11.0704H53.4197V9.30035H58.5297C58.5497 9.42035 58.5697 9.54035 58.5797 9.66035C58.5897 9.77035 58.5997 9.88035 58.6097 9.99035C58.6097 10.0904 58.6097 10.2004 58.6097 10.2904C58.6097 11.0504 58.4797 11.7404 58.2097 12.3604C57.9397 12.9804 57.5797 13.5204 57.1097 13.9704C56.6397 14.4204 56.0997 14.7704 55.4797 15.0204C54.8597 15.2704 54.1897 15.3904 53.4597 15.3904" fill="#929396"/>
<path d="M60.3098 15.2597L64.7798 3.71973H66.5898L71.0298 15.2597H69.1298L66.4898 8.29973C66.4598 8.21973 66.3898 8.03973 66.2998 7.73973C66.2098 7.43973 66.0998 7.10973 65.9798 6.74973C65.8598 6.38973 65.7498 6.04973 65.6498 5.74973C65.5498 5.44973 65.4798 5.24973 65.4498 5.15973L65.8298 5.13973C65.7598 5.32973 65.6798 5.55973 65.5898 5.84973C65.4998 6.13973 65.3998 6.43973 65.2898 6.75973C65.1898 7.07973 65.0798 7.37973 64.9798 7.65973C64.8798 7.93973 64.7998 8.16973 64.7298 8.35973L62.1098 15.2497H60.2998L60.3098 15.2597ZM62.2898 12.3897L62.9498 10.6697H68.1998L68.9598 12.3897H62.2998H62.2898Z" fill="#929396"/>
<path d="M77.3803 15.42C76.7503 15.42 76.1703 15.34 75.6403 15.17C75.1103 15 74.6203 14.75 74.1903 14.42C73.7603 14.09 73.3703 13.67 73.0303 13.17L74.2503 11.77C74.7903 12.54 75.3103 13.07 75.8003 13.37C76.2903 13.67 76.8803 13.82 77.5603 13.82C77.9803 13.82 78.3603 13.75 78.7003 13.62C79.0403 13.49 79.3103 13.31 79.5103 13.08C79.7103 12.85 79.8103 12.58 79.8103 12.29C79.8103 12.09 79.7803 11.91 79.7103 11.73C79.6403 11.55 79.5403 11.39 79.4103 11.25C79.2703 11.11 79.1003 10.98 78.8803 10.85C78.6703 10.73 78.4103 10.62 78.1303 10.53C77.8403 10.44 77.5103 10.36 77.1403 10.29C76.5503 10.17 76.0303 10.01 75.5903 9.81004C75.1503 9.61004 74.7803 9.37004 74.4903 9.07004C74.1903 8.77004 73.9703 8.43004 73.8303 8.06004C73.6903 7.68004 73.6203 7.25004 73.6203 6.78004C73.6203 6.31004 73.7203 5.89004 73.9203 5.49004C74.1203 5.09004 74.4003 4.75004 74.7603 4.46004C75.1203 4.17004 75.5403 3.94004 76.0203 3.78004C76.5003 3.62004 77.0303 3.54004 77.5903 3.54004C78.1803 3.54004 78.7303 3.62004 79.2203 3.77004C79.7203 3.92004 80.1603 4.15004 80.5403 4.45004C80.9203 4.75004 81.2403 5.12004 81.5003 5.56004L80.2503 6.80004C80.0303 6.44004 79.7803 6.13004 79.5103 5.89004C79.2403 5.64004 78.9303 5.46004 78.6003 5.33004C78.2703 5.20004 77.9203 5.14004 77.5403 5.14004C77.1103 5.14004 76.7403 5.21004 76.4203 5.34004C76.1003 5.47004 75.8503 5.66004 75.6703 5.89004C75.4903 6.13004 75.4003 6.40004 75.4003 6.72004C75.4003 6.95004 75.4403 7.16004 75.5303 7.36004C75.6203 7.55004 75.7503 7.72004 75.9303 7.87004C76.1103 8.02004 76.3603 8.15004 76.6603 8.27004C76.9703 8.38004 77.3403 8.49004 77.7703 8.57004C78.3803 8.70004 78.9103 8.87004 79.3903 9.07004C79.8703 9.27004 80.2603 9.51004 80.5903 9.79004C80.9203 10.06 81.1703 10.37 81.3403 10.71C81.5103 11.05 81.6003 11.42 81.6003 11.81C81.6003 12.55 81.4303 13.19 81.0903 13.72C80.7503 14.26 80.2603 14.67 79.6403 14.97C79.0103 15.26 78.2603 15.41 77.4003 15.41" fill="#929396"/>
<path d="M87.0601 15.26V5.42996H83.8301V3.70996H92.1701V5.42996H88.8401V15.26H87.0601Z" fill="#929396"/>
<path d="M95.1299 15.26V3.70996H100.04C100.7 3.70996 101.31 3.86996 101.86 4.19996C102.42 4.51996 102.86 4.95996 103.19 5.51996C103.52 6.07996 103.69 6.69996 103.69 7.38996C103.69 8.01996 103.52 8.59996 103.19 9.13996C102.86 9.67996 102.42 10.11 101.87 10.43C101.32 10.75 100.71 10.92 100.04 10.92H96.9099V15.26H95.1299ZM96.9099 9.20996H100.21C100.53 9.20996 100.82 9.12996 101.07 8.96996C101.32 8.80996 101.52 8.58996 101.66 8.30996C101.8 8.02996 101.87 7.71996 101.87 7.37996C101.87 6.99996 101.78 6.65996 101.6 6.36996C101.42 6.07996 101.17 5.84996 100.84 5.68996C100.52 5.51996 100.15 5.43996 99.7399 5.43996H96.8999V9.21996L96.9099 9.20996ZM101.99 15.26L99.0499 10.05L100.88 9.63996L104.15 15.28L101.99 15.26Z" fill="#929396"/>
<path d="M112.02 15.4203C111.21 15.4203 110.46 15.2703 109.77 14.9703C109.08 14.6703 108.48 14.2603 107.97 13.7203C107.46 13.1903 107.06 12.5603 106.78 11.8403C106.5 11.1203 106.36 10.3303 106.36 9.47027C106.36 8.61027 106.5 7.82027 106.78 7.10027C107.06 6.38027 107.46 5.75027 107.97 5.22027C108.48 4.69027 109.08 4.27027 109.77 3.97027C110.46 3.67027 111.21 3.53027 112.02 3.53027C112.83 3.53027 113.58 3.68027 114.27 3.97027C114.96 4.27027 115.56 4.68027 116.07 5.22027C116.58 5.76027 116.98 6.39027 117.26 7.11027C117.54 7.83027 117.68 8.61027 117.68 9.46027C117.68 10.3103 117.54 11.0903 117.26 11.8103C116.98 12.5303 116.58 13.1603 116.07 13.7003C115.56 14.2403 114.96 14.6603 114.27 14.9503C113.58 15.2503 112.83 15.4003 112.02 15.4003M112.02 13.6903C112.58 13.6903 113.1 13.5903 113.56 13.3803C114.03 13.1703 114.43 12.8803 114.77 12.5003C115.11 12.1203 115.38 11.6803 115.57 11.1603C115.76 10.6503 115.86 10.0903 115.86 9.49027C115.86 8.89027 115.76 8.33027 115.57 7.82027C115.38 7.31027 115.11 6.86027 114.77 6.48027C114.43 6.10027 114.03 5.81027 113.56 5.60027C113.09 5.39027 112.58 5.29027 112.02 5.29027C111.46 5.29027 110.94 5.39027 110.48 5.60027C110.01 5.81027 109.61 6.10027 109.26 6.47027C108.91 6.84027 108.65 7.29027 108.46 7.80027C108.27 8.31027 108.18 8.88027 108.18 9.49027C108.18 10.1003 108.27 10.6603 108.46 11.1703C108.65 11.6903 108.91 12.1303 109.26 12.5103C109.61 12.8803 110.01 13.1803 110.48 13.3803C110.95 13.5903 111.46 13.6903 112.02 13.6903Z" fill="#929396"/>
<path d="M130.9 15.4204C130.1 15.4204 129.36 15.2804 128.69 14.9904C128.02 14.7004 127.44 14.3004 126.94 13.7604C126.44 13.2304 126.06 12.6004 125.79 11.8704C125.52 11.1404 125.39 10.3504 125.39 9.48035C125.39 8.61035 125.54 7.89035 125.83 7.18035C126.12 6.47035 126.53 5.85035 127.04 5.31035C127.56 4.77035 128.16 4.35035 128.84 4.06035C129.52 3.76035 130.26 3.61035 131.05 3.61035C131.61 3.61035 132.16 3.70035 132.69 3.87035C133.22 4.04035 133.71 4.28035 134.14 4.58035C134.58 4.88035 134.93 5.23035 135.2 5.61035L134.01 6.85035C133.69 6.53035 133.37 6.26035 133.04 6.05035C132.72 5.84035 132.39 5.67035 132.05 5.56035C131.71 5.45035 131.38 5.40035 131.04 5.40035C130.5 5.40035 130 5.50035 129.53 5.70035C129.06 5.90035 128.66 6.19035 128.31 6.55035C127.96 6.91035 127.69 7.35035 127.49 7.85035C127.29 8.35035 127.19 8.90035 127.19 9.49035C127.19 10.1204 127.29 10.6904 127.48 11.2004C127.67 11.7104 127.94 12.1504 128.3 12.5104C128.65 12.8704 129.07 13.1504 129.56 13.3404C130.05 13.5304 130.59 13.6304 131.19 13.6304C131.55 13.6304 131.91 13.5804 132.26 13.4804C132.61 13.3804 132.94 13.2404 133.25 13.0504C133.56 12.8604 133.84 12.6404 134.09 12.3904L134.98 13.8404C134.73 14.1404 134.38 14.4104 133.95 14.6504C133.51 14.8904 133.03 15.0804 132.5 15.2204C131.97 15.3604 131.43 15.4304 130.89 15.4304" fill="#929396"/>
<path d="M138.18 15.26V3.70996H145.45V5.42996H139.96V13.54H145.45V15.26H138.18ZM138.98 8.47996H144.54V10.2H138.98V8.47996Z" fill="#929396"/>
<path d="M149.06 15.26V3.70996H150.66L157.72 13.16L157.46 13.31C157.42 13.04 157.38 12.74 157.34 12.41C157.31 12.09 157.28 11.74 157.25 11.37C157.22 11 157.2 10.61 157.18 10.2C157.16 9.78996 157.15 9.35996 157.14 8.89996C157.13 8.44996 157.12 7.97996 157.12 7.49996V3.70996H158.9V15.26H157.27L150.33 6.15996L150.51 5.92996C150.56 6.59996 150.61 7.16996 150.65 7.63996C150.69 8.10996 150.72 8.49996 150.75 8.82996C150.78 9.15996 150.8 9.41996 150.81 9.61996C150.82 9.81996 150.83 9.98996 150.83 10.12C150.83 10.25 150.83 10.37 150.83 10.47V15.27H149.05L149.06 15.26Z" fill="#929396"/>
<path d="M165.09 15.26V5.42996H161.86V3.70996H170.21V5.42996H166.88V15.26H165.09Z" fill="#929396"/>
<path d="M173.16 15.26V3.70996H178.07C178.73 3.70996 179.34 3.86996 179.89 4.19996C180.45 4.51996 180.89 4.95996 181.22 5.51996C181.55 6.07996 181.72 6.69996 181.72 7.38996C181.72 8.01996 181.55 8.59996 181.22 9.13996C180.89 9.67996 180.45 10.11 179.9 10.43C179.35 10.75 178.74 10.92 178.07 10.92H174.94V15.26H173.16ZM174.94 9.20996H178.24C178.56 9.20996 178.85 9.12996 179.1 8.96996C179.35 8.80996 179.55 8.58996 179.69 8.30996C179.83 8.02996 179.9 7.71996 179.9 7.37996C179.9 6.99996 179.81 6.65996 179.63 6.36996C179.45 6.07996 179.2 5.84996 178.87 5.68996C178.55 5.51996 178.18 5.43996 177.77 5.43996H174.93V9.21996L174.94 9.20996ZM180.02 15.26L177.08 10.05L178.91 9.63996L182.18 15.28L180.02 15.26Z" fill="#929396"/>
<path d="M188.94 15.42C188.31 15.42 187.73 15.34 187.2 15.17C186.67 15 186.18 14.75 185.75 14.42C185.32 14.09 184.93 13.67 184.59 13.17L185.81 11.77C186.35 12.54 186.87 13.07 187.36 13.37C187.85 13.67 188.44 13.82 189.12 13.82C189.54 13.82 189.92 13.75 190.26 13.62C190.6 13.49 190.87 13.31 191.07 13.08C191.27 12.85 191.37 12.58 191.37 12.29C191.37 12.09 191.34 11.91 191.27 11.73C191.2 11.55 191.1 11.39 190.97 11.25C190.83 11.11 190.66 10.98 190.44 10.85C190.23 10.73 189.97 10.62 189.69 10.53C189.4 10.44 189.07 10.36 188.7 10.29C188.11 10.17 187.59 10.01 187.15 9.81004C186.71 9.61004 186.34 9.37004 186.05 9.07004C185.75 8.77004 185.53 8.43004 185.39 8.06004C185.25 7.68004 185.18 7.25004 185.18 6.78004C185.18 6.31004 185.28 5.89004 185.48 5.49004C185.68 5.09004 185.96 4.75004 186.32 4.46004C186.68 4.17004 187.1 3.94004 187.58 3.78004C188.06 3.62004 188.59 3.54004 189.15 3.54004C189.74 3.54004 190.29 3.62004 190.78 3.77004C191.28 3.92004 191.72 4.15004 192.1 4.45004C192.48 4.75004 192.8 5.12004 193.06 5.56004L191.81 6.80004C191.59 6.44004 191.34 6.13004 191.07 5.89004C190.8 5.64004 190.49 5.46004 190.16 5.33004C189.83 5.20004 189.48 5.14004 189.1 5.14004C188.67 5.14004 188.3 5.21004 187.98 5.34004C187.66 5.47004 187.41 5.66004 187.23 5.89004C187.05 6.13004 186.96 6.40004 186.96 6.72004C186.96 6.95004 187 7.16004 187.09 7.36004C187.18 7.56004 187.31 7.72004 187.49 7.87004C187.67 8.02004 187.92 8.15004 188.22 8.27004C188.53 8.38004 188.9 8.49004 189.33 8.57004C189.94 8.70004 190.47 8.87004 190.95 9.07004C191.43 9.27004 191.82 9.51004 192.15 9.79004C192.48 10.06 192.73 10.37 192.9 10.71C193.07 11.05 193.16 11.42 193.16 11.81C193.16 12.55 192.99 13.19 192.65 13.72C192.31 14.26 191.82 14.67 191.2 14.97C190.57 15.26 189.82 15.41 188.96 15.41" fill="#929396"/>
<path d="M50.8396 29.9803L48.5596 24.2803H49.5596L50.9196 27.7403C50.9896 27.9103 51.0396 28.0603 51.0996 28.2003C51.1496 28.3403 51.1996 28.4603 51.2296 28.5703C51.2696 28.6803 51.2996 28.7903 51.3396 28.8803L51.4396 29.1703H51.2296C51.2696 29.0503 51.3096 28.9103 51.3496 28.7703C51.3896 28.6303 51.4396 28.4703 51.4996 28.3103C51.5596 28.1403 51.6296 27.9503 51.7096 27.7403L52.9696 24.2803H53.9996L51.6996 29.9803H50.8496H50.8396Z" fill="#929396"/>
<path d="M57.2803 29.9803V24.2803H60.8703V25.1303H58.1603V29.1403H60.8703V29.9903H57.2803V29.9803ZM57.6703 26.6303H60.4103V27.4803H57.6703V26.6303Z" fill="#929396"/>
<path d="M66.3199 30.0604C66.0099 30.0604 65.7199 30.0204 65.4599 29.9404C65.1999 29.8604 64.9599 29.7404 64.7399 29.5704C64.5299 29.4004 64.3299 29.2004 64.1699 28.9604L64.7699 28.2704C65.0399 28.6504 65.2899 28.9104 65.5399 29.0604C65.7799 29.2104 66.0699 29.2804 66.4099 29.2804C66.6199 29.2804 66.7999 29.2504 66.9699 29.1804C67.1399 29.1104 67.2699 29.0204 67.3699 28.9104C67.4699 28.8004 67.5199 28.6704 67.5199 28.5204C67.5199 28.4204 67.4999 28.3304 67.4699 28.2404C67.4399 28.1504 67.3899 28.0704 67.3199 28.0004C67.2499 27.9304 67.1599 27.8604 67.0599 27.8004C66.9499 27.7404 66.8299 27.6904 66.6899 27.6404C66.5499 27.5904 66.3899 27.5504 66.1999 27.5204C65.9099 27.4604 65.6499 27.3804 65.4299 27.2804C65.2099 27.1804 65.0299 27.0604 64.8799 26.9104C64.7299 26.7604 64.6199 26.6004 64.5499 26.4104C64.4799 26.2204 64.4399 26.0104 64.4399 25.7804C64.4399 25.5504 64.4899 25.3404 64.5899 25.1504C64.6899 24.9504 64.8299 24.7804 64.9999 24.6404C65.1799 24.5004 65.3799 24.3804 65.6199 24.3104C65.8599 24.2304 66.1199 24.1904 66.3899 24.1904C66.6799 24.1904 66.9499 24.2304 67.1999 24.3004C67.4399 24.3804 67.6599 24.4904 67.8499 24.6404C68.0399 24.7904 68.1999 24.9704 68.3199 25.1904L67.6999 25.8004C67.5899 25.6204 67.4699 25.4704 67.3299 25.3504C67.1899 25.2304 67.0499 25.1404 66.8799 25.0704C66.7199 25.0104 66.5399 24.9804 66.3599 24.9804C66.1499 24.9804 65.9599 25.0104 65.8099 25.0804C65.6499 25.1504 65.5299 25.2404 65.4399 25.3504C65.3499 25.4704 65.3099 25.6004 65.3099 25.7604C65.3099 25.8704 65.3299 25.9804 65.3799 26.0704C65.4199 26.1604 65.4899 26.2504 65.5799 26.3204C65.6699 26.3904 65.7899 26.4604 65.9399 26.5204C66.0899 26.5804 66.2699 26.6304 66.4899 26.6704C66.7899 26.7404 67.0499 26.8204 67.2899 26.9204C67.5199 27.0204 67.7199 27.1404 67.8799 27.2704C68.0399 27.4104 68.1699 27.5604 68.2499 27.7304C68.3299 27.9004 68.3799 28.0804 68.3799 28.2804C68.3799 28.6404 68.2999 28.9604 68.1299 29.2204C67.9599 29.4904 67.7199 29.6904 67.4099 29.8304C67.0999 29.9704 66.7299 30.0504 66.2999 30.0504" fill="#929396"/>
<path d="M71.9297 29.9803V24.2803H75.5197V25.1303H72.8097V29.1403H75.5197V29.9903H71.9297V29.9803ZM72.3297 26.6303H75.0697V27.4803H72.3297V26.6303Z" fill="#929396"/>
<path d="M79.2197 29.9803V24.2803H80.0997V29.1303H82.7697V29.9803H79.2197Z" fill="#929396"/>
<path d="M86.1797 29.98V29.17H87.0997V25.1H86.1797V24.29H88.8997V25.1H87.9797V29.17H88.8997V29.98H86.1797ZM86.1797 22.96H88.8697V23.57H86.1797V22.96Z" fill="#929396"/>
<path d="M92.5703 29.9803V24.2803H94.9503C95.3103 24.2803 95.6203 24.3303 95.8703 24.4403C96.1203 24.5503 96.3103 24.7103 96.4403 24.9203C96.5703 25.1303 96.6303 25.4003 96.6303 25.7103C96.6303 26.0203 96.5403 26.2803 96.3703 26.5003C96.2003 26.7203 95.9603 26.8703 95.6603 26.9503V26.7903C95.9203 26.8403 96.1403 26.9403 96.3303 27.0803C96.5203 27.2203 96.6703 27.3903 96.7703 27.6003C96.8703 27.8103 96.9303 28.0403 96.9303 28.3103C96.9303 28.5803 96.8903 28.8203 96.8003 29.0303C96.7203 29.2403 96.5903 29.4103 96.4303 29.5503C96.2603 29.6903 96.0603 29.8003 95.8303 29.8703C95.6003 29.9403 95.3303 29.9803 95.0303 29.9803H92.5703ZM93.4503 26.6403H94.9003C95.0603 26.6403 95.2103 26.6103 95.3403 26.5403C95.4703 26.4703 95.5703 26.3903 95.6403 26.2703C95.7103 26.1603 95.7503 26.0303 95.7503 25.8803C95.7503 25.6403 95.6703 25.4503 95.5103 25.3203C95.3503 25.1903 95.1103 25.1203 94.8103 25.1203H93.4603V26.6303L93.4503 26.6403ZM93.4503 29.1303H94.9803C95.2003 29.1303 95.3903 29.1003 95.5503 29.0303C95.7003 28.9603 95.8203 28.8703 95.9103 28.7403C95.9903 28.6103 96.0403 28.4603 96.0403 28.2803C96.0403 28.1103 96.0003 27.9703 95.9103 27.8503C95.8203 27.7303 95.6903 27.6403 95.5303 27.5803C95.3703 27.5203 95.1703 27.4903 94.9503 27.4903H93.4603V29.1403L93.4503 29.1303Z" fill="#929396"/>
<path d="M99.8096 29.9803L102.02 24.2803H102.92L105.11 29.9803H104.17L102.87 26.5403C102.87 26.5403 102.82 26.4103 102.78 26.2603C102.73 26.1103 102.68 25.9503 102.62 25.7703C102.56 25.5903 102.51 25.4303 102.46 25.2803C102.41 25.1303 102.38 25.0403 102.36 24.9903H102.55C102.52 25.0703 102.48 25.1903 102.43 25.3303C102.38 25.4703 102.33 25.6203 102.28 25.7803C102.23 25.9403 102.18 26.0803 102.13 26.2203C102.08 26.3603 102.04 26.4703 102.01 26.5703L100.71 29.9703H99.8096V29.9803ZM100.78 28.5603L101.11 27.7103H103.7L104.07 28.5603H100.78Z" fill="#929396"/>
<path d="M115.17 30.0295C114.73 30.0295 114.34 29.9295 113.99 29.7395C113.64 29.5495 113.37 29.2795 113.17 28.9395C112.97 28.5995 112.87 28.2195 112.87 27.7895V24.2695H113.75V27.7095C113.75 27.9895 113.82 28.2395 113.95 28.4595C114.08 28.6795 114.25 28.8495 114.47 28.9795C114.68 29.1095 114.92 29.1795 115.18 29.1795C115.45 29.1795 115.7 29.1095 115.92 28.9795C116.14 28.8495 116.32 28.6795 116.45 28.4595C116.58 28.2395 116.65 27.9895 116.65 27.7095V24.2695H117.49V27.7895C117.49 28.2195 117.39 28.5995 117.19 28.9395C116.99 29.2795 116.72 29.5395 116.37 29.7395C116.02 29.9295 115.63 30.0295 115.19 30.0295" fill="#929396"/>
<path d="M121.27 29.9803V24.2803H122.06L125.55 28.9503L125.42 29.0203C125.4 28.8803 125.38 28.7403 125.36 28.5803C125.34 28.4203 125.33 28.2503 125.32 28.0703C125.31 27.8903 125.3 27.7003 125.29 27.4903C125.29 27.2903 125.27 27.0703 125.27 26.8503C125.27 26.6303 125.27 26.4003 125.27 26.1603V24.2903H126.15V29.9903H125.34L121.91 25.4903L122 25.3803C122.03 25.7103 122.05 25.9903 122.07 26.2203C122.09 26.4503 122.1 26.6503 122.12 26.8103C122.13 26.9703 122.14 27.1003 122.15 27.2003C122.15 27.3003 122.15 27.3803 122.16 27.4503C122.16 27.5203 122.16 27.5703 122.16 27.6203V29.9903H121.28L121.27 29.9803Z" fill="#929396"/>
<path d="M134.59 29.9803V24.2803H135.45L137.53 27.6603H137.12L139.22 24.2803H140.03V29.9803H139.15V27.6403C139.15 27.1503 139.16 26.7103 139.19 26.3203C139.21 25.9303 139.26 25.5403 139.32 25.1603L139.43 25.4603L137.56 28.3403H137.02L135.21 25.4903L135.3 25.1603C135.36 25.5203 135.4 25.9003 135.43 26.2803C135.46 26.6603 135.47 27.1203 135.47 27.6403V29.9803H134.59Z" fill="#929396"/>
<path d="M143.91 29.9803V24.2803H147.5V25.1303H144.79V29.1403H147.5V29.9903H143.91V29.9803ZM144.31 26.6303H147.05V27.4803H144.31V26.6303Z" fill="#929396"/>
<path d="M151.2 29.9803V24.2803H153.43C153.84 24.2803 154.2 24.3503 154.53 24.4803C154.86 24.6203 155.14 24.8103 155.37 25.0703C155.6 25.3303 155.78 25.6303 155.91 25.9703C156.04 26.3203 156.1 26.7003 156.1 27.1303C156.1 27.5603 156.04 27.9403 155.91 28.2903C155.79 28.6403 155.61 28.9403 155.38 29.1903C155.15 29.4403 154.87 29.6403 154.54 29.7703C154.21 29.9103 153.84 29.9703 153.43 29.9703H151.2V29.9803ZM152.08 29.2203L152.06 29.1303H153.4C153.69 29.1303 153.94 29.0803 154.17 28.9903C154.4 28.9003 154.59 28.7703 154.74 28.6003C154.9 28.4303 155.01 28.2203 155.09 27.9703C155.17 27.7203 155.21 27.4403 155.21 27.1303C155.21 26.8203 155.17 26.5403 155.09 26.3003C155.01 26.0503 154.89 25.8403 154.73 25.6703C154.57 25.5003 154.38 25.3603 154.16 25.2703C153.94 25.1803 153.68 25.1303 153.39 25.1303H152.03L152.08 25.0603V29.2303V29.2203Z" fill="#929396"/>
<path d="M159.24 29.9803V29.1703H160.16V25.0903H159.24V24.2803H161.96V25.0903H161.04V29.1703H161.96V29.9803H159.24Z" fill="#929396"/>
<path d="M167.83 30.0605C167.43 30.0605 167.07 29.9905 166.74 29.8505C166.41 29.7105 166.12 29.5105 165.88 29.2405C165.64 28.9805 165.45 28.6705 165.31 28.3105C165.18 27.9505 165.11 27.5605 165.11 27.1305C165.11 26.7005 165.18 26.3405 165.33 25.9905C165.47 25.6405 165.67 25.3305 165.93 25.0705C166.19 24.8005 166.48 24.6005 166.82 24.4505C167.16 24.3005 167.52 24.2305 167.91 24.2305C168.19 24.2305 168.46 24.2705 168.72 24.3605C168.98 24.4405 169.22 24.5605 169.44 24.7105C169.65 24.8605 169.83 25.0305 169.97 25.2205L169.38 25.8305C169.22 25.6705 169.06 25.5405 168.9 25.4405C168.74 25.3305 168.58 25.2505 168.41 25.2005C168.24 25.1405 168.08 25.1205 167.91 25.1205C167.64 25.1205 167.4 25.1705 167.17 25.2705C166.94 25.3705 166.74 25.5105 166.57 25.6905C166.4 25.8705 166.27 26.0805 166.17 26.3305C166.07 26.5805 166.02 26.8505 166.02 27.1405C166.02 27.4505 166.07 27.7305 166.16 27.9805C166.25 28.2305 166.39 28.4505 166.56 28.6305C166.73 28.8105 166.94 28.9505 167.18 29.0405C167.42 29.1405 167.69 29.1805 167.98 29.1805C168.16 29.1805 168.34 29.1505 168.51 29.1105C168.68 29.0605 168.85 28.9905 169 28.9005C169.15 28.8105 169.29 28.7005 169.42 28.5705L169.86 29.2905C169.73 29.4405 169.56 29.5705 169.35 29.6905C169.14 29.8105 168.9 29.9005 168.63 29.9705C168.37 30.0405 168.1 30.0705 167.84 30.0705" fill="#929396"/>
<path d="M173.12 29.98V29.17H174.04V25.1H173.12V24.29H175.84V25.1H174.92V29.17H175.84V29.98H173.12ZM173.13 22.96H175.82V23.57H173.13V22.96Z" fill="#929396"/>
<path d="M179.51 29.9803V24.2803H180.3L183.79 28.9503L183.66 29.0203C183.64 28.8803 183.62 28.7403 183.6 28.5803C183.58 28.4203 183.57 28.2503 183.56 28.0703C183.55 27.8903 183.54 27.7003 183.53 27.4903C183.52 27.2803 183.51 27.0703 183.51 26.8503C183.51 26.6303 183.51 26.4003 183.51 26.1603V24.2903H184.39V29.9903H183.58L180.15 25.4903L180.24 25.3803C180.27 25.7103 180.29 25.9903 180.31 26.2203C180.33 26.4503 180.34 26.6503 180.36 26.8103C180.37 26.9703 180.38 27.1003 180.39 27.2003C180.39 27.3003 180.39 27.3803 180.4 27.4503C180.4 27.5203 180.4 27.5703 180.4 27.6203V29.9903H179.52L179.51 29.9803Z" fill="#929396"/>
<path d="M187.66 29.9803L189.87 24.2803H190.77L192.96 29.9803H192.02L190.72 26.5403C190.72 26.5403 190.67 26.4103 190.63 26.2603C190.58 26.1103 190.53 25.9503 190.47 25.7703C190.41 25.5903 190.36 25.4303 190.31 25.2803C190.26 25.1303 190.23 25.0403 190.21 24.9903H190.4C190.37 25.0703 190.33 25.1903 190.28 25.3303C190.23 25.4703 190.18 25.6203 190.13 25.7803C190.08 25.9403 190.03 26.0803 189.98 26.2203C189.93 26.3603 189.89 26.4703 189.86 26.5703L188.56 29.9703H187.66V29.9803ZM188.64 28.5603L188.97 27.7103H191.56L191.93 28.5603H188.64Z" fill="#929396"/>
</g>
<defs>
<clipPath id="clip0_426_5314">
<rect width="193.15" height="32.31" fill="white"/>
</clipPath>
</defs>
</svg>